<!-- Created with Inkscape (http://www.inkscape.org/) -->
<svg xmlns:rdf="http://www.w3.org/1999/02/22-rdf-syntax-ns#" xmlns="http://www.w3.org/2000/svg" height="70" width="80" version="1.1" xmlns:cc="http://creativecommons.org/ns#" xmlns:dc="http://purl.org/dc/elements/1.1/">
 <metadata>
  <rdf:RDF>
   <cc:Work rdf:about="">
    <dc:format>image/svg+xml</dc:format>
    <dc:type rdf:resource="http://purl.org/dc/dcmitype/StillImage"/>
    <dc:title/>
   </cc:Work>
  </rdf:RDF>
 </metadata>
 <g transform="translate(0,-982.36215)">
  <rect stroke-linejoin="miter" fill-rule="evenodd" ry="6.4237" height="34.716" width="69.716" stroke="#000" stroke-linecap="butt" y="991.18" x="5.3914" stroke-width="0.28417px" fill="#000"/>
  <text style="letter-spacing:0px;word-spacing:0px;" font-weight="normal" xml:space="preserve" font-size="27.12830925px" font-style="normal" y="1021.3523" x="8.5389967" font-family="Sans" line-height="125%" fill="#ffffff"><tspan font-weight="normal" font-style="normal" font-stretch="normal" font-variant="normal" y="1021.3523" x="8.5389967" font-family="Trebuchet MS" fill="#ffffff"><tspan font-size="28px">tree</tspan><tspan font-weight="normal" font-size="14px" font-style="normal" font-stretch="normal" font-variant="normal" font-family="Trebuchet MS" fill="#ffffff">js</tspan></tspan></text>
  <path stroke-linejoin="miter" d="m45.913,1051.9s-1.2451-2.3214-0.17363-8.4822c5.3267-2.2088,14.415-7.975,14.911-15.589h-4.1964c0.43384,0.9532-0.96138,3.8483-3.4821,5.9464-0.2852-1.7171-0.7192-4.4386-0.89287-5.9464h-3.2143c0.33911,2.5981,0.79475,5.2545,1.6072,8.0892-1.4936,1.4699-5.8369,3.5077-6.7857,3.2143-0.56717-2.0499-0.67071-6.4379-0.5357-11.304h-4.1072c0.0437,2.9326,0.0659,5.8223-0.35714,7.8214-4.2279-1.7852-7.4422-3.2631-10.179-7.8214h-7.1429c4.0168,3.4493,3.5848,4.5896,15.268,12.018,0.45491,4.2389-0.50773,8.3384-1.4805,12.101z" stroke="#000" stroke-linecap="butt" stroke-width="1px" fill="#000"/>
 </g>
</svg>
