<svg xmlns="http://www.w3.org/2000/svg" height="70" width="80"><g transform="translate(0,-982)"><rect ry="10" height="35" width="70" stroke="#000" y="990" x="5"/><text y="1020" x="8" font-family="Trebuchet MS" fill="#fff"><tspan font-size="28px">tree</tspan><tspan font-size="14px">js</tspan></text>
<path d="m45.9,1051.9s-1.2-2.3-0.1-8.4c5.3-2.2,14.4-7.9,14.9-15.5h-4.1c0.4,0.9-0.9,3.8-3.4,5.9-0.2-1.7-0.7-4.4-0.8-5.9h-3.2c0.3,2.5,0.7,5.2,1.6,8.0-1.4,1.4-5.8,3.5-6.7,3.2-0.5-2.0-0.6-6.4-0.5-11.3h-4.1c0.0,2.9,0.0,5.8-0.3,7.8-4.2-1.7-7.4-3.2-10.1-7.8h-7.1c4.0,3.4,3.5,4.5,15.2,12.0,0.4,4.2-0.5,8.3-1.4,12.1z" stroke="#000"/></g></svg>